<svg id="icon-muadzin" xmlns="http://www.w3.org/2000/svg" width="47.747" height="62.121" viewBox="0 0 47.747 62.121">
  <path id="Path_33" data-name="Path 33" d="M349.2,128.5h-3.636v4.216h1.805a3.311,3.311,0,0,1,1.952.634v-4.729Z" transform="translate(-310.826 -112.911)" fill="#554e56"/>
  <path id="Path_34" data-name="Path 34" d="M347.372,162.254h-1.805V170h1.805a3.451,3.451,0,0,0,3.451-3.451v-.847a3.451,3.451,0,0,0-3.451-3.451Z" transform="translate(-310.826 -142.568)" fill="#f6a96c"/>
  <path id="Path_35" data-name="Path 35" d="M214.65,301.141a8.454,8.454,0,0,1-4.266,1.151h-4.718a8.453,8.453,0,0,1-4.266-1.151v4.67H214.65Z" transform="translate(-184.152 -264.604)" fill="#cbc4cc"/>
  <path id="Path_36" data-name="Path 36" d="M204.142,302.152a8.447,8.447,0,0,1-2.742-1.012v4.67h2.742Z" transform="translate(-184.151 -264.603)" fill="#b5adb6"/>
  <path id="Path_37" data-name="Path 37" d="M248.5,310.63h1.82v3.518H248.5Z" transform="translate(-225.537 -272.941)" fill="#e2dee2"/>
  <path id="Path_38" data-name="Path 38" d="M165.433,128.5v13.589a8.63,8.63,0,0,0,8.63,8.63h4.718a8.63,8.63,0,0,0,8.63-8.63V128.5Z" transform="translate(-152.548 -112.911)" fill="#554e56"/>
  <path id="Path_39" data-name="Path 39" d="M137.421,132.718h1.805V128.5H135.59l-.121.121v4.729A3.311,3.311,0,0,1,137.421,132.718Z" transform="translate(-126.22 -112.911)" fill="#433f43"/>
  <g id="Group_12" data-name="Group 12" transform="translate(7.75 19.686)">
    <path id="Path_40" data-name="Path 40" d="M128.364,162.254h-1.805a3.451,3.451,0,0,0-3.451,3.451v.846A3.451,3.451,0,0,0,126.558,170h1.805Z" transform="translate(-123.107 -162.254)" fill="#f6a96c"/>
  </g>
  <path id="Path_41" data-name="Path 41" d="M169.7,143.912a7.485,7.485,0,0,1-2.985-5.98V128.5h-1.282v13.589a8.63,8.63,0,0,0,8.63,8.63h4.073A8.631,8.631,0,0,1,169.7,143.912Z" transform="translate(-152.548 -112.912)" fill="#433f43"/>
  <g id="Group_13" data-name="Group 13" transform="translate(14.167 15.591)">
    <path id="Path_42" data-name="Path 42" d="M176,128.5v9.429a7.5,7.5,0,0,0,7.492,7.493h4.428a7.5,7.5,0,0,0,7.492-7.493V128.5Z" transform="translate(-176 -128.502)" fill="#ffbd86"/>
  </g>
  <g id="Group_14" data-name="Group 14" transform="translate(14.167 15.591)">
    <path id="Path_43" data-name="Path 43" d="M178.912,137.932V128.5H176v9.429a7.5,7.5,0,0,0,7.492,7.493H186.4A7.5,7.5,0,0,1,178.912,137.932Z" transform="translate(-176 -128.503)" fill="#f6a96c"/>
  </g>
  <g id="Group_15" data-name="Group 15" transform="translate(9.249 0)">
    <path id="Path_44" data-name="Path 44" d="M152.158,0h-4.13a12.559,12.559,0,0,0-12.559,12.559v3.153h29.248V12.559A12.559,12.559,0,0,0,152.158,0Z" transform="translate(-135.469)" fill="#e2dee2"/>
  </g>
  <g id="Group_16" data-name="Group 16" transform="translate(9.249 0)">
    <path id="Path_45" data-name="Path 45" d="M149.158,0h-1.13a12.559,12.559,0,0,0-12.559,12.559h4a12.56,12.56,0,0,1,7.312-11.413A3.362,3.362,0,0,1,149.158,0Z" transform="translate(-135.469 0)" fill="#cbc4cc"/>
  </g>
  <g id="Group_17" data-name="Group 17" transform="translate(17.249 0)">
    <path id="Path_46" data-name="Path 46" d="M214.649,12.68v-.121C214.649,5.623,212.1,0,208.96,0h-1.871c-3.142,0-5.689,5.623-5.689,12.559v.121Z" transform="translate(-201.4)" fill="#cbc4cc"/>
  </g>
  <g id="Group_18" data-name="Group 18" transform="translate(17.249 0)">
    <path id="Path_47" data-name="Path 47" d="M204.4,12.68v-.121c0-6.516,2.248-11.872,5.125-12.5A2.648,2.648,0,0,0,208.961,0H207.09c-3.142,0-5.689,5.623-5.689,12.559v.121Z" transform="translate(-201.401 0)" fill="#b5adb6"/>
  </g>
  <g id="Group_19" data-name="Group 19" transform="translate(9.249 12.559)">
    <path id="Path_48" data-name="Path 48" d="M135.469,103.512h29.248v3.153H135.469Z" transform="translate(-135.469 -103.512)" fill="#f3f0f3"/>
  </g>
  <g id="Group_20" data-name="Group 20" transform="translate(9.249 12.559)">
    <path id="Path_49" data-name="Path 49" d="M135.469,103.512h4v3.153h-4Z" transform="translate(-135.469 -103.512)" fill="#e2dee2"/>
  </g>
  <g id="Group_22" data-name="Group 22" transform="translate(0 41.086)">
    <path id="Path_54" data-name="Path 54" d="M105.107,359.664h-44a1.875,1.875,0,0,1-1.875-1.875V346.128a7.5,7.5,0,0,1,7.5-7.5H99.482a7.5,7.5,0,0,1,7.5,7.5v11.661a1.875,1.875,0,0,1-1.875,1.875Z" transform="translate(-59.235 -338.629)" fill="#f3f0f3"/>
  </g>
  <g id="Group_23" data-name="Group 23" transform="translate(0 41.086)">
    <path id="Path_55" data-name="Path 55" d="M65.235,357.789V346.128a7.5,7.5,0,0,1,7.5-7.5h-6a7.5,7.5,0,0,0-7.5,7.5v11.661a1.875,1.875,0,0,0,1.875,1.875h6a1.875,1.875,0,0,1-1.875-1.875Z" transform="translate(-59.235 -338.629)" fill="#e2dee2"/>
  </g>
  <g id="Group_24" data-name="Group 24" transform="translate(4.652 49.399)">
    <path id="Path_56" data-name="Path 56" d="M99.4,419.87V408.058a.91.91,0,1,0-1.82,0V419.87Z" transform="translate(-97.579 -407.148)" fill="#cbc4cc"/>
    <path id="Path_57" data-name="Path 57" d="M401.242,419.87V408.058a.91.91,0,1,0-1.82,0V419.87Z" transform="translate(-362.8 -407.148)" fill="#cbc4cc"/>
  </g>
  <g id="Group_25" data-name="Group 25" transform="translate(21.499 41.086)">
    <path id="Path_58" data-name="Path 58" d="M236.427,338.629v13.348a.625.625,0,0,0,.625.625h3.5a.625.625,0,0,0,.625-.625V338.629Z" transform="translate(-236.427 -338.629)" fill="#cbc4cc"/>
  </g>
  <g id="Group_26" data-name="Group 26" transform="translate(21.499 41.086)">
    <path id="Path_59" data-name="Path 59" d="M238.426,351.977V338.629h-2v13.348a.625.625,0,0,0,.625.625h2A.625.625,0,0,1,238.426,351.977Z" transform="translate(-236.426 -338.629)" fill="#b5adb6"/>
  </g>
  <g id="Group_30" data-name="Group 30" transform="translate(19.714 7.277)">
    <g id="Group_27" data-name="Group 27">
      <path id="Path_60" data-name="Path 60" d="M222.625,62.8a.91.91,0,0,1-.91-.91v-1a.91.91,0,1,1,1.82,0v1A.91.91,0,0,1,222.625,62.8Z" transform="translate(-221.715 -59.977)" fill="#e2dee2"/>
    </g>
    <g id="Group_28" data-name="Group 28" transform="translate(3.25)">
      <path id="Path_61" data-name="Path 61" d="M249.41,62.8a.91.91,0,0,1-.91-.91v-1a.91.91,0,0,1,1.82,0v1A.91.91,0,0,1,249.41,62.8Z" transform="translate(-248.5 -59.977)" fill="#e2dee2"/>
    </g>
    <g id="Group_29" data-name="Group 29" transform="translate(6.5)">
      <path id="Path_62" data-name="Path 62" d="M276.195,62.8a.91.91,0,0,1-.91-.91v-1a.91.91,0,1,1,1.82,0v1A.91.91,0,0,1,276.195,62.8Z" transform="translate(-275.285 -59.977)" fill="#e2dee2"/>
    </g>
  </g>
  <g id="Group_33" data-name="Group 33" transform="translate(13.027 7.277)">
    <g id="Group_31" data-name="Group 31">
      <path id="Path_63" data-name="Path 63" d="M167.511,62.8a.91.91,0,0,1-.91-.91v-1a.91.91,0,0,1,1.82,0v1A.91.91,0,0,1,167.511,62.8Z" transform="translate(-166.601 -59.977)" fill="#b5adb6"/>
    </g>
    <g id="Group_32" data-name="Group 32" transform="translate(19.874)">
      <path id="Path_64" data-name="Path 64" d="M331.309,62.8a.91.91,0,0,1-.91-.91v-1a.91.91,0,0,1,1.82,0v1A.91.91,0,0,1,331.309,62.8Z" transform="translate(-330.399 -59.977)" fill="#b5adb6"/>
    </g>
  </g>
</svg>
