<svg xmlns="http://www.w3.org/2000/svg" width="73.92" height="86.423" viewBox="0 0 73.92 86.423">
  <g id="mosque_1_" data-name="mosque (1)" transform="translate(-37.037 0)">
    <path id="Path_99" data-name="Path 99" d="M102.283,234.051s8.674-6.483,8.674-19.667c0-21.973-33.654-21.164-33.654-36.777H70.691c0,15.613-33.654,14.8-33.654,36.777,0,13.184,8.674,19.667,8.674,19.667Z" transform="translate(0 -147.629)" fill="#f6f1f1"/>
    <path id="Path_100" data-name="Path 100" d="M59.6,214.38c0,13.184,3.377,19.667,3.377,19.667H45.711s-8.674-6.483-8.674-19.667c0-21.973,33.654-21.164,33.654-36.777h2.017C72.709,193.216,59.6,192.406,59.6,214.38Z" transform="translate(0 -147.624)" fill="#dfdfdf"/>
    <path id="Path_101" data-name="Path 101" d="M198.067,18.322l.128-.127a1.2,1.2,0,0,1,2,1.173A15.694,15.694,0,1,1,180.87.048a1.2,1.2,0,0,1,1.169,2.009L182,2.092a11.418,11.418,0,0,0,16.064,16.23Z" transform="translate(-110.001 0)" fill="#f6e266"/>
    <path id="Path_102" data-name="Path 102" d="M178.016,26.246a15.643,15.643,0,0,0,9.088,4.5A15.7,15.7,0,0,1,180.87.049,1.2,1.2,0,0,1,182.384,1a15.7,15.7,0,0,0-4.367,25.243Z" transform="translate(-110.001 0)" fill="#eab14d"/>
    <path id="Path_103" data-name="Path 103" d="M265.894,9.287l1.346,2.728a1.131,1.131,0,0,0,.851.619l3.01.438A1.131,1.131,0,0,1,271.729,15l-2.178,2.123a1.131,1.131,0,0,0-.325,1l.514,3a1.131,1.131,0,0,1-1.641,1.192L265.407,20.9a1.131,1.131,0,0,0-1.052,0l-2.693,1.416a1.131,1.131,0,0,1-1.641-1.192l.514-3a1.13,1.13,0,0,0-.325-1L258.031,15a1.131,1.131,0,0,1,.627-1.929l3.01-.438a1.131,1.131,0,0,0,.851-.619l1.346-2.728A1.131,1.131,0,0,1,265.894,9.287Z" transform="translate(-183.407 -7.195)" fill="#f6e266"/>
    <path id="Path_104" data-name="Path 104" d="M265.82,9.145a1.116,1.116,0,0,0-.779.607l-1.347,2.728a1.131,1.131,0,0,1-.851.62l-3.011.437a1.131,1.131,0,0,0-.627,1.929l2.178,2.123a1.131,1.131,0,0,1,.326,1l-.514,3a1.112,1.112,0,0,0,.181.831,1.132,1.132,0,0,1-1.349-1.3l.514-3a1.135,1.135,0,0,0-.324-1L258.037,15a1.132,1.132,0,0,1,.627-1.929l3.011-.437a1.13,1.13,0,0,0,.851-.618l1.347-2.728A1.132,1.132,0,0,1,265.82,9.145Z" transform="translate(-183.412 -7.194)" fill="#eab14d"/>
  </g>
</svg>
