<svg xmlns="http://www.w3.org/2000/svg" width="57.118" height="62.121" viewBox="0 0 57.118 62.121">
  <g id="icon-khotib" transform="translate(-50.054 -37.56)">
    <g id="Group_35" data-name="Group 35" transform="translate(91.883 68.385)">
      <path id="Path_75" data-name="Path 75" d="M344.738,289.646a1.079,1.079,0,0,1-1.079-1.079v-4.6l-2.512-2.512a1.079,1.079,0,1,1,1.526-1.526l2.828,2.828a1.079,1.079,0,0,1,.316.763v5.047a1.079,1.079,0,0,1-1.079,1.079Z" transform="translate(-340.831 -279.614)" fill="#b87d72"/>
    </g>
    <path id="Path_76" data-name="Path 76" d="M343.642,93.645h-.8a.5.5,0,0,1-.5-.5V90.762a1.109,1.109,0,0,0-1.046-1.124,1.079,1.079,0,0,0-1.112,1.078v7.369l2.216.854,2.224-.854V94.63A.985.985,0,0,0,343.642,93.645Z" transform="translate(-248.397 -48.581)" fill="#fed2a4"/>
    <path id="Path_77" data-name="Path 77" d="M205.971,197.647l-7.328,1.079-8.391-1.079V175.674l3.058-1.762a3.714,3.714,0,0,1,1.854-.5h5.883a3.713,3.713,0,0,1,1.848.493l3.076,1.765v21.973Z" transform="translate(-120.03 -120.309)" fill="#fff3de"/>
    <path id="Path_78" data-name="Path 78" d="M304.581,148.36h-4.274a.854.854,0,0,0-.854.854V157.6l-5.116-3.374-.872,5.259.872,4.6h8.771a2.328,2.328,0,0,0,2.328-2.328V149.214A.854.854,0,0,0,304.581,148.36Z" transform="translate(-208.395 -98.856)" fill="#fff3de"/>
    <path id="Path_79" data-name="Path 79" d="M343.918,148.36h-3.033a.854.854,0,0,1,.854.854v12.537a2.328,2.328,0,0,1-2.328,2.328h3.033a2.328,2.328,0,0,0,2.328-2.328V149.214A.854.854,0,0,0,343.918,148.36Z" transform="translate(-247.732 -98.856)" fill="#ffe5c2"/>
    <path id="Path_80" data-name="Path 80" d="M253.134,173.417h-2.043l2.514,1.442a2.828,2.828,0,0,1,1.421,2.453v20.335l1.608.593,1.426-.593V175.674l-3.076-1.765A3.716,3.716,0,0,0,253.134,173.417Z" transform="translate(-172.117 -120.309)" fill="#ffe5c2"/>
    <path id="Path_81" data-name="Path 81" d="M148.662,211.082l2.95,1.079,3.033-1.079,1.2-10.986-1.2-10.986-1.547,1.02a9.87,9.87,0,0,0-4.436,8.239Z" transform="translate(-84.423 -133.743)" fill="#fff3de"/>
    <path id="Path_82" data-name="Path 82" d="M170.653,239.1a9.864,9.864,0,0,0-1.21.941.838.838,0,0,0-.276.619v12.955l1.516,1.079,1.517-1.079v-14a.829.829,0,0,0-1.286-.692Z" transform="translate(-101.978 -176.279)" fill="#ffe5c2"/>
    <path id="Path_83" data-name="Path 83" d="M140.207,383.924l-21.888-.755-21.887.755,4.036,7.385,17.851,1.138,17.852-1.138Z" transform="translate(-39.706 -299.887)" fill="#c38f86"/>
    <path id="Path_84" data-name="Path 84" d="M355.632,383.924,351.6,391.31l1.55.706,1.483-.706,4.036-7.385-1.461-.755Z" transform="translate(-258.164 -299.887)" fill="#b87d72"/>
    <path id="Path_85" data-name="Path 85" d="M107.172,344.876v.663a3.017,3.017,0,0,1-3.018,3.018H53.072a3.017,3.017,0,0,1-3.018-3.018v-.663a3.017,3.017,0,0,1,3.018-3.017h51.082A3.017,3.017,0,0,1,107.172,344.876Z" transform="translate(0 -264.52)" fill="#97da7b"/>
    <path id="Path_86" data-name="Path 86" d="M195.536,345.065a6.424,6.424,0,0,1-1.024,3.491H183.648a6.467,6.467,0,0,1-.174-6.7h11.21A6.422,6.422,0,0,1,195.536,345.065Z" transform="translate(-113.499 -264.52)" fill="#80d261"/>
    <path id="Path_87" data-name="Path 87" d="M408.083,341.855H405.05a3.018,3.018,0,0,1,3.018,3.018v.663a3.018,3.018,0,0,1-3.018,3.018h3.033a3.018,3.018,0,0,0,3.018-3.018v-.663a3.018,3.018,0,0,0-3.018-3.018Z" transform="translate(-303.929 -264.517)" fill="#80d261"/>
    <path id="Path_88" data-name="Path 88" d="M160.254,448.018H124.516l-.032-8.259h35.7Z" transform="translate(-63.723 -348.337)" fill="#b87d72"/>
    <path id="Path_89" data-name="Path 89" d="M354.629,439.759H351.6l.066,8.259H354.7Z" transform="translate(-258.164 -348.337)" fill="#ab695d"/>
    <circle id="Ellipse_6" data-name="Ellipse 6" cx="6.456" cy="6.456" r="6.456" transform="translate(72.157 74.09)" fill="#ffe177"/>
    <path id="Path_90" data-name="Path 90" d="M239.559,319.272a6.474,6.474,0,0,0-1.517.181,6.456,6.456,0,0,1,0,12.551,6.456,6.456,0,1,0,1.517-12.731Z" transform="translate(-160.945 -245.182)" fill="#ffd15b"/>
    <g id="Group_36" data-name="Group 36" transform="translate(76.206 79.467)">
      <path id="Path_91" data-name="Path 91" d="M235.589,358.81h-2.656a1.079,1.079,0,1,1,0-2.158h2.656a1.079,1.079,0,1,1,0,2.158Z" transform="translate(-231.854 -356.652)" fill="#fff3de"/>
    </g>
    <g id="Group_37" data-name="Group 37" transform="translate(65.753 90.125)">
      <path id="Path_92" data-name="Path 92" d="M161.342,431.818V440.3h-2.158v-8.477a1.079,1.079,0,1,1,2.158,0Z" transform="translate(-159.184 -430.739)" fill="#ab695d"/>
    </g>
    <g id="Group_38" data-name="Group 38" transform="translate(89.467 90.125)">
      <path id="Path_93" data-name="Path 93" d="M326.192,431.818V440.3h-2.158v-8.477a1.079,1.079,0,1,1,2.158,0Z" transform="translate(-324.034 -430.739)" fill="#ab695d"/>
    </g>
    <g id="Group_39" data-name="Group 39" transform="translate(77.003 52.029)">
      <path id="Path_94" data-name="Path 94" d="M238.469,176.77a1.079,1.079,0,0,1-1.079-1.079V167a1.079,1.079,0,1,1,2.158,0v8.695A1.079,1.079,0,0,1,238.469,176.77Z" transform="translate(-237.39 -165.917)" fill="#ffe5c2"/>
    </g>
    <path id="Path_95" data-name="Path 95" d="M212.212,65.333h-1.706a4.448,4.448,0,0,0-4.448,4.448v2.106l5.3.734,5.3-.734V69.781a4.448,4.448,0,0,0-4.448-4.448Z" transform="translate(-133.562 -27.773)" fill="#fff3de"/>
    <path id="Path_96" data-name="Path 96" d="M234.735,65.333H233.03a4.488,4.488,0,0,0-.664.049,4.449,4.449,0,0,1,3.784,4.4v2.106l1.378.529,1.655-.529V69.781a4.448,4.448,0,0,0-4.448-4.448Z" transform="translate(-156.086 -27.773)" fill="#ffe5c2"/>
    <path id="Path_97" data-name="Path 97" d="M213.305,119.892h-3.891a3.356,3.356,0,0,1-3.356-3.356V110.9h10.6v5.638A3.356,3.356,0,0,1,213.305,119.892Z" transform="translate(-133.563 -66.783)" fill="#fed2a4"/>
    <path id="Path_98" data-name="Path 98" d="M238.7,110.9v5.638a3.356,3.356,0,0,1-3.356,3.356h3.033a3.356,3.356,0,0,0,3.356-3.356V110.9Z" transform="translate(-158.638 -66.783)" fill="#ffbd86"/>
  </g>
</svg>
