<svg id="icon-imam" xmlns="http://www.w3.org/2000/svg" width="50.083" height="62.121" viewBox="0 0 50.083 62.121">
  <g id="Group_7" data-name="Group 7" transform="translate(0 34.047)">
    <path id="Path_16" data-name="Path 16" d="M103.675,306.652A18.861,18.861,0,0,0,96.95,293a32.324,32.324,0,0,0-10.26-5.872c-.088-.031-.157-.268-.239-.3-.317-.107-.589-.193-.808-.258-2.731-.819-3.056-3.421-2.867-5.959H75.054c.189,2.538-.136,5.14-2.867,5.959-.22.066-.492.151-.808.258-.148.05-.266.631-.432.691a31.1,31.1,0,0,0-9.926,5.665,18.485,18.485,0,0,0-6.538,13.568,10.678,10.678,0,0,0,.01,1.46h49.183A12.222,12.222,0,0,0,103.675,306.652Z" transform="translate(-53.873 -280.613)" fill="#f6a96c"/>
    <path id="Path_17" data-name="Path 17" d="M285.016,308.691h-2.959a18.873,18.873,0,0,0,.009-1.934c-.248-5.391-3.146-8.927-7.239-12.445a32.137,32.137,0,0,0-10.213-5.871c-3.569-1.259-3.962-4.411-3.708-7.824h3.211c-.19,2.537.136,5.139,2.867,5.959.219.066.491.151.808.258,0,0,.271.423.427.478A30.894,30.894,0,0,1,278.04,293a19.133,19.133,0,0,1,6.976,13.654C285.046,307.283,285.055,308.032,285.016,308.691Z" transform="translate(-235.214 -280.617)" fill="#ea9b58"/>
    <path id="Path_18" data-name="Path 18" d="M99.659,353.719H49.637a18.533,18.533,0,0,1-.01-1.934,19.623,19.623,0,0,1,6.9-13.923,31.105,31.105,0,0,1,4.842-3.4c.067-.038.263.05.33.012a32.369,32.369,0,0,1,5.3-2.374c.042-.015.08-.224.121-.238a8.957,8.957,0,0,0,14.919.229c.052-.076.342.143.392.066a28.232,28.232,0,0,1,5,2.294c.076.043.428-.034.5.01a31.1,31.1,0,0,1,4.841,3.4,19.624,19.624,0,0,1,6.9,13.923,18.6,18.6,0,0,1-.011,1.934Z" transform="translate(-49.606 -325.645)" fill="#fdf6ec"/>
    <path id="Path_19" data-name="Path 19" d="M322.015,354.9h-3.21a18.864,18.864,0,0,0,.009-1.934c-.248-5.391-3.146-8.927-7.239-12.445a32.019,32.019,0,0,0-8.909-5.379,8.95,8.95,0,0,0,1.766-1.934s.15.041.185.054c.23.082.553.189.781.275.445.166.855.328,1.293.512.915.386,1.689.8,2.568,1.271.243.13.375.166.616.3.071.04.339-.017.41.024a29.981,29.981,0,0,1,2.557,1.623c.788.561,1.55,1.146,2.284,1.777a19.624,19.624,0,0,1,6.9,13.923A18.506,18.506,0,0,1,322.015,354.9Z" transform="translate(-271.962 -326.829)" fill="#fcead0"/>
    <path id="Path_20" data-name="Path 20" d="M173.094,334.463a33.162,33.162,0,0,0-5.746-2.6,8.957,8.957,0,0,1-15.072,0,33.162,33.162,0,0,0-5.746,2.6,16.438,16.438,0,0,0,7.944,5.877,2.4,2.4,0,0,1,1.621,2.268v11.112h7.434V342.607a2.4,2.4,0,0,1,1.621-2.268A16.438,16.438,0,0,0,173.094,334.463Z" transform="translate(-134.77 -325.645)" fill="#e2f6eb"/>
    <path id="Path_21" data-name="Path 21" d="M310.287,334.462a16.482,16.482,0,0,1-2.088,2.358,32.687,32.687,0,0,0-5.532-2.86c.032-.024.062-.05.092-.075a10.65,10.65,0,0,0,.927-.9,8.918,8.918,0,0,0,.7-.894q.078-.113.153-.229l.1.036c1.028.367,2.039.767,3.034,1.222.1.046.578.262,1.063.513l.588.3C309.878,334.221,310.287,334.462,310.287,334.462Z" transform="translate(-271.963 -325.645)" fill="#ceefdd"/>
    <g id="Group_6" data-name="Group 6" transform="translate(24.086 14.985)">
      <ellipse id="Ellipse_2" data-name="Ellipse 2" cx="0.955" cy="0.955" rx="0.955" ry="0.955" fill="#6ed5a1"/>
      <ellipse id="Ellipse_3" data-name="Ellipse 3" cx="0.955" cy="0.955" rx="0.955" ry="0.955" transform="translate(0 4.01)" fill="#6ed5a1"/>
      <ellipse id="Ellipse_4" data-name="Ellipse 4" cx="0.955" cy="0.955" rx="0.955" ry="0.955" transform="translate(0 8.019)" fill="#6ed5a1"/>
    </g>
  </g>
  <g id="Group_8" data-name="Group 8" transform="translate(8.657 16.353)">
    <path id="Path_22" data-name="Path 22" d="M359.112,141.333h.6a3.274,3.274,0,0,0,0-6.548h-.6Z" transform="translate(-330.217 -134.785)" fill="#f6a96c"/>
    <path id="Path_23" data-name="Path 23" d="M124.833,141.333h-.6a3.274,3.274,0,0,1,0-6.548h.6Z" transform="translate(-120.959 -134.785)" fill="#f6a96c"/>
  </g>
  <path id="Path_24" data-name="Path 24" d="M154.495,118.077V126.2a13.082,13.082,0,0,0,.065,1.308c.306,3.055,1.082,5.8,3.138,7.852a12.914,12.914,0,0,0,9.16,3.794c6.714,0,11.65-5.107,12.305-11.647a13.086,13.086,0,0,0,.065-1.308v-8.121Z" transform="translate(-141.769 -103.751)" fill="#fed2a4"/>
  <path id="Path_25" data-name="Path 25" d="M167.8,87.006H143a1.493,1.493,0,0,1-1.493-1.493V83.994A1.493,1.493,0,0,1,143,82.5h24.8a1.493,1.493,0,0,1,1.493,1.493v1.519A1.493,1.493,0,0,1,167.8,87.006Z" transform="translate(-130.355 -72.491)" fill="#e2f6eb"/>
  <path id="Path_26" data-name="Path 26" d="M341.854,83.991v1.519A1.493,1.493,0,0,1,340.361,87H337.9a1.493,1.493,0,0,0,1.492-1.492V83.991A1.493,1.493,0,0,0,337.9,82.5h2.462A1.493,1.493,0,0,1,341.854,83.991Z" transform="translate(-302.921 -72.489)" fill="#ceefdd"/>
  <path id="Path_27" data-name="Path 27" d="M154.765,10.013a12.541,12.541,0,0,1,24.565,0Z" transform="translate(-142.006 -0.004)" fill="#6ed5a1"/>
  <path id="Path_28" data-name="Path 28" d="M258.858,10.009h-2.614A13.446,13.446,0,0,0,251.8,2.845,12.257,12.257,0,0,0,245.274.069,12.617,12.617,0,0,1,246.592,0a12.206,12.206,0,0,1,7.817,2.845A13.44,13.44,0,0,1,258.858,10.009Z" transform="translate(-221.534 0)" fill="#46cc8d"/>
  <path id="Path_31" data-name="Path 31" d="M171.333,119.629v11.466a.83.83,0,0,1-.174.509l-2.542,2.988a.5.5,0,0,1-.888-.3.976.976,0,0,0-.976-.976H158.3a.976.976,0,0,0-.976.976.5.5,0,0,1-.888.3L153.9,131.6a.831.831,0,0,1-.174-.509V119.629h-4.1V131.4A9.684,9.684,0,0,0,152,137.759a11.965,11.965,0,0,0,9.026,4.111h3a11.965,11.965,0,0,0,9.026-4.111,9.684,9.684,0,0,0,2.379-6.357V119.629Z" transform="translate(-137.486 -105.114)" fill="#918291"/>
  <path id="Path_32" data-name="Path 32" d="M261.951,119.628V131.4a9.689,9.689,0,0,1-2.379,6.358,11.965,11.965,0,0,1-9.026,4.111h-2.462a11.965,11.965,0,0,0,9.026-4.111,9.689,9.689,0,0,0,2.379-6.358V119.628Z" transform="translate(-224.003 -105.114)" fill="#7a6d79"/>
</svg>
