<svg xmlns="http://www.w3.org/2000/svg" width="66.359" height="67" viewBox="0 0 66.359 67">
  <g id="icon-calendar" transform="translate(-23.392 -23)">
    <path id="Path_105" data-name="Path 105" d="M23.392,46.407V90.43a3.851,3.851,0,0,0,3.853,3.852H85.9a3.851,3.851,0,0,0,3.852-3.852V46.407Z" transform="translate(0 -4.282)" fill="#eeefee"/>
    <path id="Path_106" data-name="Path 106" d="M23.392,32.922V43.236H89.751V32.922A3.852,3.852,0,0,0,85.9,29.07H27.244a3.852,3.852,0,0,0-3.852,3.852Z" transform="translate(0 -1.11)" fill="#2cbfae"/>
    <circle id="Ellipse_13" data-name="Ellipse 13" cx="3.52" cy="3.52" r="3.52" transform="translate(33.752 30.713)" fill="#eeefee"/>
    <circle id="Ellipse_14" data-name="Ellipse 14" cx="3.52" cy="3.52" r="3.52" transform="translate(72.352 30.713)" fill="#eeefee"/>
    <g id="Group_47" data-name="Group 47" transform="translate(35.246 23)">
      <path id="Path_107" data-name="Path 107" d="M39.926,23A2.023,2.023,0,0,0,37.9,25.023V33.54a2.023,2.023,0,1,0,4.046,0V25.023A2.024,2.024,0,0,0,39.926,23Z" transform="translate(-37.9 -23)" fill="#575b6d"/>
      <path id="Path_108" data-name="Path 108" d="M87.168,23a2.023,2.023,0,0,0-2.023,2.023V33.54a2.023,2.023,0,1,0,4.046,0V25.023A2.023,2.023,0,0,0,87.168,23Z" transform="translate(-46.542 -23)" fill="#575b6d"/>
      <path id="Path_109" data-name="Path 109" d="M54.807,84.9a2.442,2.442,0,0,1-1.733-.718l-7.345-7.345a2.451,2.451,0,1,1,3.466-3.467l5.612,5.612L71.858,61.926a2.451,2.451,0,1,1,3.466,3.467L56.54,84.178a2.442,2.442,0,0,1-1.733.719Z" transform="translate(-39.201 -29.989)" fill="#575b6d"/>
    </g>
  </g>
</svg>
