<svg xmlns="http://www.w3.org/2000/svg" width="108.089" height="100.735" viewBox="0 0 108.089 100.735">
  <g id="cloudy" transform="translate(0 -0.063)">
    <g id="Group_1" data-name="Group 1" transform="translate(47.647 0.063)">
      <path id="Path_1" data-name="Path 1" d="M255.741,79.873a23.81,23.81,0,1,1-23.81-23.81,23.81,23.81,0,0,1,23.81,23.81Zm0,0" transform="translate(-208.121 -43.242)" fill="#fdd020"/>
      <path id="Path_2" data-name="Path 2" d="M445.616,155.726h-3.663a1.832,1.832,0,0,1,0-3.663h3.663a1.832,1.832,0,1,1,0,3.663Zm0,0" transform="translate(-387.006 -117.264)" fill="#fdd020"/>
      <path id="Path_3" data-name="Path 3" d="M289.953,7.389a1.832,1.832,0,0,1-1.832-1.832V1.894a1.832,1.832,0,1,1,3.663,0V5.557A1.831,1.831,0,0,1,289.953,7.389Zm0,0" transform="translate(-269.806 -0.063)" fill="#fdd020"/>
      <path id="Path_4" data-name="Path 4" d="M401.956,47.312a1.832,1.832,0,0,1-1.294-3.127l3.663-3.663a1.831,1.831,0,1,1,2.589,2.59l-3.663,3.663A1.83,1.83,0,0,1,401.956,47.312Zm0,0" transform="translate(-356.167 -30.828)" fill="#fdd020"/>
    </g>
    <path id="Path_5" data-name="Path 5" d="M83.142,150.272a19.034,19.034,0,1,0,0-38.056,19.9,19.9,0,0,0-3.846.377,15.834,15.834,0,0,0-15.6-12.485,16.113,16.113,0,0,0-6.648,1.438,21.279,21.279,0,0,0-41.1,7.211,20.27,20.27,0,0,0,1.241,6.945,17.288,17.288,0,1,0,.526,34.57" transform="translate(0 -67.79)" fill="#a3d4f7"/>
    <path id="Path_6" data-name="Path 6" d="M278.773,330.378a7.326,7.326,0,0,1-14.652,0c0-5.495,7.326-18.315,7.326-18.315S278.773,324.884,278.773,330.378Zm0,0" transform="translate(-203.653 -240.57)" fill="#60a2d7"/>
    <path id="Path_7" data-name="Path 7" d="M198.773,250.378a7.326,7.326,0,0,1-14.652,0c0-5.495,7.326-18.315,7.326-18.315S198.773,244.884,198.773,250.378Zm0,0" transform="translate(-141.968 -178.886)" fill="#60a2d7"/>
    <path id="Path_8" data-name="Path 8" d="M126.773,346.378a7.326,7.326,0,0,1-14.652,0c0-5.495,7.326-18.315,7.326-18.315S126.773,340.884,126.773,346.378Zm0,0" transform="translate(-86.452 -252.907)" fill="#60a2d7"/>
  </g>
</svg>
